<?xml version="1.0" standalone="no"?>
<!DOCTYPE svg PUBLIC "-//W3C//DTD SVG 20010904//EN"
 "http://www.w3.org/TR/2001/REC-SVG-20010904/DTD/svg10.dtd">
<svg version="1.0" xmlns="http://www.w3.org/2000/svg"
 width="82.000000pt" height="95.000000pt" viewBox="0 0 82.000000 95.000000"
 preserveAspectRatio="xMidYMid meet">

<g transform="translate(0.000000,95.000000) scale(0.100000,-0.100000)"
fill="#000000" stroke="none">
<path d="M208 838 l-197 -113 0 -245 -1 -245 200 -118 200 -118 140 78 c77 43
140 81 140 84 0 9 -265 169 -279 169 -12 0 -101 -57 -101 -64 0 -2 36 -25 80
-52 44 -26 80 -50 80 -53 0 -4 -14 -14 -30 -23 l-30 -17 -120 72 c-66 40 -120
74 -120 77 0 8 226 130 240 130 7 0 92 -45 188 -100 166 -95 176 -100 193 -84
18 16 19 36 19 263 l0 246 -191 110 c-106 61 -197 111 -203 113 -6 1 -100 -48
-208 -110z m358 -96 l149 -88 3 -143 3 -142 -88 47 c-161 86 -153 79 -153 134
l0 49 86 -49 c47 -28 87 -50 90 -50 2 0 4 22 4 49 l0 49 -125 76 -125 76 -125
-76 -125 -75 0 -50 c0 -27 3 -49 8 -49 4 0 42 20 86 45 43 25 83 45 88 45 5 0
8 -21 6 -46 l-3 -46 -122 -68 -123 -69 0 149 0 148 152 86 c84 47 156 86 159
86 4 0 74 -40 155 -88z"/>
</g>
</svg>
